<?xml version="1.0" encoding="UTF-8" standalone="no"?>
<!DOCTYPE svg PUBLIC "-//W3C//DTD SVG 1.1//EN" "http://www.w3.org/Graphics/SVG/1.1/DTD/svg11.dtd">
<svg version="1.1" xmlns="http://www.w3.org/2000/svg" xmlns:xlink="http://www.w3.org/1999/xlink" preserveAspectRatio="xMidYMid meet" viewBox="0 0 640 640" width="640" height="640">
<defs>

<path opacity="1" fill="#3e3e42" fill-opacity="1" d="M252.04 320C252.04 282.52 282.52 252.04 320 252.04C357.48 252.04 387.96 282.52 387.96 320C387.96 357.47 357.48 387.96 320 387.96C282.53 387.96 252.04 357.47 252.04 320ZM293.69 320C293.69 334.51 305.49 346.31 320 346.31C334.51 346.31 346.31 334.51 346.31 320C346.31 305.49 334.51 293.69 320 293.69C305.49 293.69 293.69 305.49 293.69 320Z" id="b3hruRxnis">
</path>
<path opacity="1" fill="#3e3e42" fill-opacity="1" d="M152.9 487.1C108.26 442.47 83.68 383.12 83.68 320C83.68 256.88 108.26 197.53 152.9 152.9C197.53 108.26 256.88 83.68 320 83.68C383.12 83.68 442.47 108.26 487.1 152.9C531.74 197.53 556.32 256.88 556.32 320C556.32 383.12 531.74 442.47 487.1 487.1C442.47 531.74 383.12 556.32 320 556.32C256.88 556.32 197.53 531.74 152.9 487.1ZM125.33 320C125.33 427.34 212.66 514.67 320 514.67C427.34 514.67 514.67 427.34 514.67 320C514.67 212.66 427.34 125.33 320 125.33C212.66 125.33 125.33 212.66 125.33 320Z" id="bRTGFGOM9">
</path>
<path opacity="1" fill="#1d1d1f" fill-opacity="1" d="M93.73 546.27C33.28 485.83 0 405.48 0 320C0 234.52 33.28 154.17 93.73 93.73C154.17 33.29 234.53 0 320 0C405.48 0 485.84 33.29 546.28 93.73C606.72 154.17 640 234.53 640 320C640 405.47 606.72 485.83 546.27 546.27C485.83 606.72 405.48 640 320 640C234.53 640 154.17 606.71 93.73 546.27ZM123.56 320C123.56 428.32 211.69 516.44 320 516.44C428.32 516.44 516.44 428.32 516.44 320C516.44 211.69 428.32 123.56 320 123.56C211.68 123.56 123.56 211.69 123.56 320Z" id="a7aAQkli1">
</path>
<path opacity="1" fill="#1d1d1f" fill-opacity="1" d="M320 272.86C293.97 272.86 272.86 293.97 272.86 320C272.86 346.03 293.97 367.14 320 367.14C346.03 367.14 367.14 346.03 367.14 320C367.14 293.97 346.03 272.86 320 272.86Z" id="a5Wbk7mqz">
</path>
<path opacity="1" fill="#8a8a91" fill-opacity="1" d="M579.72 447.7C579.24 435.31 572.41 424.05 561.67 417.85C545.06 408.26 510.68 388.41 440.37 347.82C430.44 342.08 424.32 331.49 424.31 320.02C424.31 308.55 430.41 297.94 440.34 292.2C452.47 285.2 549.54 229.16 561.67 222.15C578.93 212.18 584.85 190.11 574.88 172.84C570.1 164.55 562.21 158.5 552.97 156.02C543.72 153.54 533.87 154.84 525.57 159.63C513.44 166.63 416.4 222.66 404.27 229.67C394.33 235.4 382.09 235.4 372.15 229.67C362.21 223.93 356.09 213.33 356.09 201.85C356.09 187.85 356.09 75.79 356.09 61.78C356.09 41.85 339.93 25.68 320 25.68C300.06 25.68 283.9 41.85 283.9 61.78C283.9 75.79 283.9 187.85 283.9 201.85C283.9 213.33 277.78 223.93 267.84 229.67C257.91 235.4 245.66 235.4 235.73 229.67C223.6 222.66 126.55 166.63 114.42 159.63C106.13 154.84 96.28 153.54 87.03 156.02C77.78 158.5 69.9 164.55 65.11 172.84C55.14 190.11 61.06 212.19 78.32 222.15C90.45 229.16 187.5 285.19 199.63 292.19C209.57 297.93 215.69 308.53 215.69 320C215.69 331.48 209.57 342.08 199.63 347.82C187.5 354.82 90.46 410.85 78.33 417.85C61.06 427.82 55.15 449.89 65.11 467.16C71.8 478.74 83.93 485.21 96.41 485.21C102.53 485.21 108.74 483.65 114.43 480.37C126.56 473.37 223.6 417.34 235.73 410.34C245.67 404.6 257.91 404.6 267.85 410.34C277.78 416.07 283.9 426.67 283.9 438.15C283.9 452.16 283.9 564.21 283.9 578.22C283.9 598.16 300.07 614.32 320 614.32C339.94 614.32 356.1 598.16 356.1 578.22C356.1 564.21 356.1 452.15 356.1 438.15C356.1 426.67 362.22 416.07 372.16 410.33C382.09 404.6 394.34 404.6 404.27 410.33C416.4 417.34 513.45 473.37 525.58 480.37C531.26 483.65 537.47 485.21 543.59 485.21C550.87 485.21 558.03 483.01 564.06 478.88C574.29 471.87 580.2 460.1 579.72 447.7Z" id="b1bHCniebU">
</path>
</defs>
<g>
<g>
<g>
<use xlink:href="#b1bHCniebU" opacity="1" fill="#c6c5ca" fill-opacity="1">
</use>
</g>
<g>
<use xlink:href="#a7aAQkli1" opacity="1" fill="#2d2e30" fill-opacity="1">
</use>
</g>
<g>
<use xlink:href="#a5Wbk7mqz" opacity="1" fill="#2d2e30" fill-opacity="1">
</use>
</g>
<g>
<use xlink:href="#b3hruRxnis" opacity="1" fill="#57565c" fill-opacity="1">
</use>
</g>
<g>
<use xlink:href="#bRTGFGOM9" opacity="1" fill="#57565c" fill-opacity="1">
</use>=
</g>
</g>
</g>
</svg>
